HIERARCHY
ROOT hip
{
  OFFSET 0.108731 86.0248 -8.17153
  CHANNELS 6 Xposition Yposition Zposition Zrotation Xrotation Yrotation
  JOINT abdomen
  {
    OFFSET 0 -1.186 -1.50178
    CHANNELS 6 Xposition Yposition Zposition Zrotation Xrotation Yrotation
    JOINT abdomen2
    {
      OFFSET 0 9.964 0.21338
      CHANNELS 6 Xposition Yposition Zposition Zrotation Xrotation Yrotation
      JOINT chest
      {
        OFFSET 0 13.134 -3.25729
        CHANNELS 6 Xposition Yposition Zposition Zrotation Xrotation Yrotation
        JOINT neck
        {
          OFFSET 0 20.686 -1.69049
          CHANNELS 6 Xposition Yposition Zposition Zrotation Xrotation Yrotation
          JOINT head
          {
            OFFSET 0 7.23799 -0.12368
            CHANNELS 6 Xposition Yposition Zposition Zrotation Xrotation Yrotation
            End Site
            {
              OFFSET 0 10.017 2.38717
            }
          }
        }
        JOINT lCollar
        {
          OFFSET 1.70688 20.075 5.0056
          CHANNELS 6 Xposition Yposition Zposition Zrotation Xrotation Yrotation
          JOINT lShldr
          {
            OFFSET 13.6458 -0.047012 -4.84902
            CHANNELS 6 Xposition Yposition Zposition Zrotation Xrotation Yrotation
            JOINT lForeArm
            {
              OFFSET 28.3255 -0.975903 2.28883
              CHANNELS 6 Xposition Yposition Zposition Zrotation Xrotation Yrotation
              JOINT lHand
              {
                OFFSET 22.1583 -0.530035 10.8316
                CHANNELS 6 Xposition Yposition Zposition Zrotation Xrotation Yrotation
                JOINT lThumb1
                {
                  OFFSET 0.785995 0.111999 2.58168
                  CHANNELS 6 Xposition Yposition Zposition Zrotation Xrotation Yrotation
                  JOINT lThumb2
                  {
                    OFFSET 0.3601 -0.878005 4.2331
                    CHANNELS 6 Xposition Yposition Zposition Zrotation Xrotation Yrotation
                    End Site
                    {
                      OFFSET 1.81271 -1.21601 2.2227
                    }
                  }
                }
                JOINT lCarpal1
                {
                  OFFSET 0.9571 1.114 1.76948
                  CHANNELS 6 Xposition Yposition Zposition Zrotation Xrotation Yrotation
                  JOINT lIndex1
                  {
                    OFFSET 4.1246 0.487 4.1451
                    CHANNELS 6 Xposition Yposition Zposition Zrotation Xrotation Yrotation
                    JOINT lIndex2
                    {
                      OFFSET 3.40521 -1.45401 2.7682
                      CHANNELS 6 Xposition Yposition Zposition Zrotation Xrotation Yrotation
                      End Site
                      {
                        OFFSET 1.4531 -1.795 1.2713
                      }
                    }
                  }
                  JOINT lMid1
                  {
                    OFFSET 5.6954 0.209991 2.1184
                    CHANNELS 6 Xposition Yposition Zposition Zrotation Xrotation Yrotation
                    JOINT lMid2
                    {
                      OFFSET 3.9766 -1.53999 2.3863
                      CHANNELS 6 Xposition Yposition Zposition Zrotation Xrotation Yrotation
                      End Site
                      {
                        OFFSET 1.4042 -1.926 1.125
                      }
                    }
                  }
                }
                JOINT lCarpal2
                {
                  OFFSET 2.09559 0.65999 -0.38939
                  CHANNELS 6 Xposition Yposition Zposition Zrotation Xrotation Yrotation
                  JOINT lRing1
                  {
                    OFFSET 5.0395 -0.089997 2.49707
                    CHANNELS 6 Xposition Yposition Zposition Zrotation Xrotation Yrotation
                    JOINT lRing2
                    {
                      OFFSET 3.7921 -1.552 1.4806
                      CHANNELS 6 Xposition Yposition Zposition Zrotation Xrotation Yrotation
                      End Site
                      {
                        OFFSET 1.4655 -1.808 0.9609
                      }
                    }
                  }
                  JOINT lPinky1
                  {
                    OFFSET 4.9141 -1.269 0.35915
                    CHANNELS 6 Xposition Yposition Zposition Zrotation Xrotation Yrotation
                    JOINT lPinky2
                    {
                      OFFSET 3.1477 -1.685 0.84623
                      CHANNELS 6 Xposition Yposition Zposition Zrotation Xrotation Yrotation
                      End Site
                      {
                        OFFSET 0.805505 -1.58499 0.79549
                      }
                    }
                  }
                }
              }
            }
          }
        }
        JOINT rCollar
        {
          OFFSET -1.70688 20.075 5.0056
          CHANNELS 6 Xposition Yposition Zposition Zrotation Xrotation Yrotation
          JOINT rShldr
          {
            OFFSET -13.6458 -0.047012 -4.84902
            CHANNELS 6 Xposition Yposition Zposition Zrotation Xrotation Yrotation
            JOINT rForeArm
            {
              OFFSET -28.3255 -0.975903 2.28883
              CHANNELS 6 Xposition Yposition Zposition Zrotation Xrotation Yrotation
              JOINT rHand
              {
                OFFSET -22.1583 -0.530036 10.8316
                CHANNELS 6 Xposition Yposition Zposition Zrotation Xrotation Yrotation
                JOINT rThumb1
                {
                  OFFSET -0.785995 0.111999 2.58168
                  CHANNELS 6 Xposition Yposition Zposition Zrotation Xrotation Yrotation
                  JOINT rThumb2
                  {
                    OFFSET -0.3601 -0.878005 4.2331
                    CHANNELS 6 Xposition Yposition Zposition Zrotation Xrotation Yrotation
                    End Site
                    {
                      OFFSET -1.81271 -1.21601 2.2227
                    }
                  }
                }
                JOINT rCarpal1
                {
                  OFFSET -0.9571 1.114 1.76948
                  CHANNELS 6 Xposition Yposition Zposition Zrotation Xrotation Yrotation
                  JOINT rIndex1
                  {
                    OFFSET -4.1246 0.487 4.1451
                    CHANNELS 6 Xposition Yposition Zposition Zrotation Xrotation Yrotation
                    JOINT rIndex2
                    {
                      OFFSET -3.40521 -1.45401 2.7682
                      CHANNELS 6 Xposition Yposition Zposition Zrotation Xrotation Yrotation
                      End Site
                      {
                        OFFSET -1.4531 -1.795 1.2713
                      }
                    }
                  }
                  JOINT rMid1
                  {
                    OFFSET -5.6954 0.209991 2.1184
                    CHANNELS 6 Xposition Yposition Zposition Zrotation Xrotation Yrotation
                    JOINT rMid2
                    {
                      OFFSET -3.9766 -1.53999 2.3863
                      CHANNELS 6 Xposition Yposition Zposition Zrotation Xrotation Yrotation
                      End Site
                      {
                        OFFSET -1.4042 -1.926 1.125
                      }
                    }
                  }
                }
                JOINT rCarpal2
                {
                  OFFSET -2.09559 0.65999 -0.38939
                  CHANNELS 6 Xposition Yposition Zposition Zrotation Xrotation Yrotation
                  JOINT rRing1
                  {
                    OFFSET -5.0395 -0.089997 2.49707
                    CHANNELS 6 Xposition Yposition Zposition Zrotation Xrotation Yrotation
                    JOINT rRing2
                    {
                      OFFSET -3.7921 -1.552 1.4806
                      CHANNELS 6 Xposition Yposition Zposition Zrotation Xrotation Yrotation
                      End Site
                      {
                        OFFSET -1.4655 -1.808 0.9609
                      }
                    }
                  }
                  JOINT rPinky1
                  {
                    OFFSET -4.9141 -1.269 0.35915
                    CHANNELS 6 Xposition Yposition Zposition Zrotation Xrotation Yrotation
                    JOINT rPinky2
                    {
                      OFFSET -3.1477 -1.685 0.84623
                      CHANNELS 6 Xposition Yposition Zposition Zrotation Xrotation Yrotation
                      End Site
                      {
                        OFFSET -0.805505 -1.58499 0.79549
                      }
                    }
                  }
                }
              }
            }
          }
        }
      }
    }
  }
  JOINT lThigh
  {
    OFFSET 8.367 -8.2066 0.59823
    CHANNELS 6 Xposition Yposition Zposition Zrotation Xrotation Yrotation
    JOINT lShin
    {
      OFFSET 2.19232 -43.463 -0.493181
      CHANNELS 6 Xposition Yposition Zposition Zrotation Xrotation Yrotation
      JOINT lFoot
      {
        OFFSET 0.733257 -45.8593 -2.64513
        CHANNELS 6 Xposition Yposition Zposition Zrotation Xrotation Yrotation
        End Site
        {
          OFFSET 2.6618 -4.26993 12.3931
        }
      }
    }
  }
  JOINT rThigh
  {
    OFFSET -8.367 -8.2066 0.59823
    CHANNELS 6 Xposition Yposition Zposition Zrotation Xrotation Yrotation
    JOINT rShin
    {
      OFFSET -2.19233 -43.463 -0.493108
      CHANNELS 6 Xposition Yposition Zposition Zrotation Xrotation Yrotation
      JOINT rFoot
      {
        OFFSET -0.733256 -45.8593 -2.64514
        CHANNELS 6 Xposition Yposition Zposition Zrotation Xrotation Yrotation
        End Site
        {
          OFFSET -2.6618 -4.26993 12.3931
        }
      }
    }
  }
}
MOTION
Frames:	4
Frame Time:	0.0333333
1.43237 103.533 -56.9056 1.2233 11.3532 2.02677 0 -1.186 -1.50178 2.6476 13.6021 -0.638189 0 9.964 0.21338 1.66353 10.7878 -0.557693 1.77636e-015 13.134 -3.25729 1.67924 10.7849 -0.578823 0 20.686 -1.69049 1.96452 5.11915 -6.31697 4.44089e-016 7.23799 -0.12368 -9.05243 5.853 -4.16779 1.70688 20.075 5.0056 -21.4179 -2.45498 14.5765 13.6458 -0.047012 -4.84902 -44.5473 5.05938 -6.20837 28.3255 -0.975903 2.28883 0.451432 0.153083 1.56917 22.1583 -0.530035 10.8316 4.35172 22.0434 -13.2045 0.785995 0.111999 2.58168 -3.18055e-015 -3.18055e-015 3.18055e-015 0.3601 -0.878005 4.2331 -1.76556e-031 -3.18055e-015 -3.18055e-015 0.9571 1.114 1.76948 -3.18055e-015 -3.18055e-015 3.18055e-015 4.1246 0.487 4.1451 -1.76556e-031 -3.18055e-015 -3.18055e-015 3.40521 -1.45401 2.7682 -1.76556e-031 -3.18055e-015 -3.18055e-015 5.6954 0.209991 2.1184 -1.76556e-031 -3.18055e-015 -3.18055e-015 3.9766 -1.53999 2.3863 -1.76556e-031 -3.18055e-015 -3.18055e-015 2.09559 0.65999 -0.38939 -3.18055e-015 -3.18055e-015 3.18055e-015 5.0395 -0.089997 2.49707 -1.76556e-031 -3.18055e-015 -3.18055e-015 3.7921 -1.552 1.4806 -1.76556e-031 -3.18055e-015 -3.18055e-015 4.9141 -1.269 0.35915 -1.76556e-031 -3.18055e-015 -3.18055e-015 3.1477 -1.685 0.84623 -1.76556e-031 -3.18055e-015 -3.18055e-015 -1.70688 20.075 5.0056 0.615545 -2.94651 -3.96287 -13.6458 -0.047012 -4.84902 17.5245 18.5474 54.8563 -28.3255 -0.975903 2.28883 -3.49011 -4.75443 60.7431 -22.1583 -0.530036 10.8316 68.2539 -38.5075 32.242 -0.785995 0.111999 2.58168 1.19271e-015 -6.36111e-015 2.38542e-015 -0.3601 -0.878005 4.2331 2.38542e-015 -6.36111e-015 -7.95139e-016 -0.9571 1.114 1.76948 1.19271e-015 -6.36111e-015 2.38542e-015 -4.1246 0.487 4.1451 2.38542e-015 -6.36111e-015 -7.95139e-016 -3.40521 -1.45401 2.7682 4.37326e-015 -3.18055e-015 -2.38542e-015 -5.6954 0.209991 2.1184 2.38542e-015 -6.36111e-015 -7.95139e-016 -3.9766 -1.53999 2.3863 4.37326e-015 -3.18055e-015 -2.38542e-015 -2.09559 0.65999 -0.38939 1.19271e-015 -6.36111e-015 2.38542e-015 -5.0395 -0.089997 2.49707 2.38542e-015 -6.36111e-015 -7.95139e-016 -3.7921 -1.552 1.4806 4.37326e-015 -3.18055e-015 -2.38542e-015 -4.9141 -1.269 0.35915 2.38542e-015 -6.36111e-015 -7.95139e-016 -3.1477 -1.685 0.84623 4.37326e-015 -3.18055e-015 -2.38542e-015 8.367 -8.2066 0.59823 2.59569 -27.7786 1.89301 2.19232 -43.463 -0.493181 -1.3765 23.7804 1.45496 0.733257 -45.8593 -2.64513 -2.50627 -7.16044 -2.87656 -8.367 -8.2066 0.59823 -8.21249 -28.0602 -18.3676 -2.19233 -43.463 -0.493108 -1.478 27.6157 -0.310094 -0.733256 -45.8593 -2.64514 2.43537 -9.75356 4.24455 
1.39957 103.53 -56.9373 1.21651 11.2077 1.99021 -8.88178e-016 -1.186 -1.50178 2.61381 13.4721 -0.631281 -1.77636e-015 9.964 0.21338 1.64766 10.6736 -0.549491 0 13.134 -3.25729 1.66344 10.6708 -0.572122 -1.77636e-015 20.686 -1.69049 1.87605 5.2019 -6.35866 4.44089e-016 7.23799 -0.12368 -9.14101 6.0959 -4.20701 1.70688 20.075 5.0056 -21.4457 -2.44053 14.4691 13.6458 -0.047012 -4.84902 -44.3673 5.60409 -6.19479 28.3255 -0.975903 2.28883 0.47933 0.129102 1.1243 22.1583 -0.530035 10.8316 3.93732 21.5638 -12.5695 0.785995 0.111999 2.58168 0 0 -6.36111e-015 0.3601 -0.878005 4.2331 -9.54166e-015 0 -3.18055e-015 0.9571 1.114 1.76948 0 0 -6.36111e-015 4.1246 0.487 4.1451 -9.54166e-015 0 -3.18055e-015 3.40521 -1.45401 2.7682 -1.76556e-031 -3.18055e-015 -3.18055e-015 5.6954 0.209991 2.1184 -9.54166e-015 0 -3.18055e-015 3.9766 -1.53999 2.3863 -1.76556e-031 -3.18055e-015 -3.18055e-015 2.09559 0.65999 -0.38939 0 0 -6.36111e-015 5.0395 -0.089997 2.49707 -9.54166e-015 0 -3.18055e-015 3.7921 -1.552 1.4806 -1.76556e-031 -3.18055e-015 -3.18055e-015 4.9141 -1.269 0.35915 -9.54166e-015 0 -3.18055e-015 3.1477 -1.685 0.84623 -1.76556e-031 -3.18055e-015 -3.18055e-015 -1.70688 20.075 5.0056 0.363698 -2.94348 -4.15108 -13.6458 -0.047012 -4.84902 17.1301 19.1213 55.0728 -28.3255 -0.975903 2.28883 -3.48581 -4.76276 60.8475 -22.1583 -0.530036 10.8316 66.4237 -39.8496 31.7429 -0.785995 0.111999 2.58168 2.38542e-015 0 5.96354e-015 -0.3601 -0.878005 4.2331 1.98785e-015 0 5.96354e-015 -0.9571 1.114 1.76948 2.38542e-015 0 5.96354e-015 -4.1246 0.487 4.1451 1.98785e-015 0 5.96354e-015 -3.40521 -1.45401 2.7682 -3.97569e-016 0 2.78299e-015 -5.6954 0.209991 2.1184 1.98785e-015 0 5.96354e-015 -3.9766 -1.53999 2.3863 -3.97569e-016 0 2.78299e-015 -2.09559 0.65999 -0.38939 2.38542e-015 0 5.96354e-015 -5.0395 -0.089997 2.49707 1.98785e-015 0 5.96354e-015 -3.7921 -1.552 1.4806 -3.97569e-016 0 2.78299e-015 -4.9141 -1.269 0.35915 1.98785e-015 0 5.96354e-015 -3.1477 -1.685 0.84623 -3.97569e-016 0 2.78299e-015 8.367 -8.2066 0.59823 2.65357 -27.6528 1.94754 2.19232 -43.463 -0.493181 -1.37986 23.8121 1.45831 0.733257 -45.8593 -2.64513 -2.52777 -7.16901 -2.89488 -8.367 -8.2066 0.59823 -8.18094 -27.9433 -18.4088 -2.19233 -43.463 -0.493108 -1.47926 27.6421 -0.309522 -0.733256 -45.8593 -2.64514 2.40735 -9.75573 4.33672 
1.3657 103.532 -56.9596 1.18917 11.0003 1.96505 8.88178e-016 -1.186 -1.50178 2.57184 13.3127 -0.627706 1.77636e-015 9.964 0.21338 1.62694 10.5347 -0.54391 -1.77636e-015 13.134 -3.25729 1.64221 10.5319 -0.563535 0 20.686 -1.69049 1.8306 5.30376 -6.51771 0 7.23799 -0.12368 -9.33895 6.49229 -4.30317 1.70688 20.075 5.0056 -21.4912 -2.41612 14.2889 13.6458 -0.047012 -4.84902 -44.1375 6.16958 -5.94372 28.3255 -0.975903 2.28883 0.526417 0.0873136 0.360174 22.1583 -0.530035 10.8316 3.45272 21.0486 -11.7287 0.785995 0.111999 2.58168 3.18055e-015 0 6.36111e-015 0.3601 -0.878005 4.2331 3.18055e-015 0 3.18055e-015 0.9571 1.114 1.76948 3.18055e-015 0 6.36111e-015 4.1246 0.487 4.1451 3.18055e-015 0 3.18055e-015 3.40521 -1.45401 2.7682 -0 0 6.36111e-015 5.6954 0.209991 2.1184 3.18055e-015 0 3.18055e-015 3.9766 -1.53999 2.3863 -0 0 6.36111e-015 2.09559 0.65999 -0.38939 3.18055e-015 0 6.36111e-015 5.0395 -0.089997 2.49707 3.18055e-015 0 3.18055e-015 3.7921 -1.552 1.4806 -0 0 6.36111e-015 4.9141 -1.269 0.35915 3.18055e-015 0 3.18055e-015 3.1477 -1.685 0.84623 -0 0 6.36111e-015 -1.70688 20.075 5.0056 -0.0435903 -2.93158 -4.6397 -13.6458 -0.047012 -4.84902 16.5737 19.9062 55.8065 -28.3255 -0.975903 2.28883 -3.49304 -4.74895 60.6746 -22.1583 -0.530036 10.8316 64.3781 -41.103 31.3894 -0.785995 0.111999 2.58168 7.95139e-015 -3.18055e-015 -1.19271e-015 -0.3601 -0.878005 4.2331 -5.96354e-016 -3.18055e-015 3.97569e-015 -0.9571 1.114 1.76948 7.95139e-015 -3.18055e-015 -1.19271e-015 -4.1246 0.487 4.1451 -5.96354e-016 -3.18055e-015 3.97569e-015 -3.40521 -1.45401 2.7682 9.93923e-016 -6.36111e-015 -1.59028e-015 -5.6954 0.209991 2.1184 -5.96354e-016 -3.18055e-015 3.97569e-015 -3.9766 -1.53999 2.3863 9.93923e-016 -6.36111e-015 -1.59028e-015 -2.09559 0.65999 -0.38939 7.95139e-015 -3.18055e-015 -1.19271e-015 -5.0395 -0.089997 2.49707 -5.96354e-016 -3.18055e-015 3.97569e-015 -3.7921 -1.552 1.4806 9.93923e-016 -6.36111e-015 -1.59028e-015 -4.9141 -1.269 0.35915 -5.96354e-016 -3.18055e-015 3.97569e-015 -3.1477 -1.685 0.84623 9.93923e-016 -6.36111e-015 -1.59028e-015 8.367 -8.2066 0.59823 2.73892 -27.4543 2.02826 2.19232 -43.463 -0.493181 -1.38218 23.8394 1.46136 0.733257 -45.8593 -2.64513 -2.55215 -7.18235 -2.94764 -8.367 -8.2066 0.59823 -8.12167 -27.7343 -18.459 -2.19233 -43.463 -0.493108 -1.48002 27.6356 -0.30873 -0.733256 -45.8593 -2.64514 2.3786 -9.75495 4.44186 
1.33242 103.541 -56.9711 1.13409 10.7466 1.92048 -8.88179e-016 -1.186 -1.50178 2.50514 13.1294 -0.613794 0 9.964 0.21338 1.58379 10.3765 -0.527408 0 13.134 -3.25729 1.59938 10.3736 -0.550102 -1.77636e-015 20.686 -1.69049 1.8834 5.39357 -6.71914 -4.44089e-016 7.23799 -0.12368 -9.65547 6.79772 -4.37397 1.70688 20.075 5.0056 -21.5495 -2.38315 14.0488 13.6458 -0.047012 -4.84902 -43.8904 6.62979 -5.39173 28.3255 -0.975903 2.28883 0.598305 0.0204151 -0.83262 22.1583 -0.530035 10.8316 2.9355 20.5943 -10.6637 0.785995 0.111999 2.58168 -3.18055e-015 -3.18055e-015 3.18055e-015 0.3601 -0.878005 4.2331 6.36111e-015 -6.36111e-015 -3.18055e-015 0.9571 1.114 1.76948 -3.18055e-015 -3.18055e-015 3.18055e-015 4.1246 0.487 4.1451 6.36111e-015 -6.36111e-015 -3.18055e-015 3.40521 -1.45401 2.7682 0 0 -0 5.6954 0.209991 2.1184 6.36111e-015 -6.36111e-015 -3.18055e-015 3.9766 -1.53999 2.3863 0 0 -0 2.09559 0.65999 -0.38939 -3.18055e-015 -3.18055e-015 3.18055e-015 5.0395 -0.089997 2.49707 6.36111e-015 -6.36111e-015 -3.18055e-015 3.7921 -1.552 1.4806 0 0 -0 4.9141 -1.269 0.35915 6.36111e-015 -6.36111e-015 -3.18055e-015 3.1477 -1.685 0.84623 0 0 -0 -1.70688 20.075 5.0056 -0.349831 -2.9083 -5.40037 -13.6458 -0.047012 -4.84902 15.807 20.6261 56.8683 -28.3255 -0.975903 2.28883 -3.50966 -4.71647 60.2703 -22.1583 -0.530036 10.8316 62.672 -41.9217 31.3866 -0.785995 0.111999 2.58168 -1.68967e-015 3.18055e-015 -2.88238e-015 -0.3601 -0.878005 4.2331 -1.39149e-015 3.18055e-015 -6.55989e-015 -0.9571 1.114 1.76948 -1.68967e-015 3.18055e-015 -2.88238e-015 -4.1246 0.487 4.1451 -1.39149e-015 3.18055e-015 -6.55989e-015 -3.40521 -1.45401 2.7682 -2.08724e-015 -6.36111e-015 -9.0447e-015 -5.6954 0.209991 2.1184 -1.39149e-015 3.18055e-015 -6.55989e-015 -3.9766 -1.53999 2.3863 -2.08724e-015 -6.36111e-015 -9.0447e-015 -2.09559 0.65999 -0.38939 -1.68967e-015 3.18055e-015 -2.88238e-015 -5.0395 -0.089997 2.49707 -1.39149e-015 3.18055e-015 -6.55989e-015 -3.7921 -1.552 1.4806 -2.08724e-015 -6.36111e-015 -9.0447e-015 -4.9141 -1.269 0.35915 -1.39149e-015 3.18055e-015 -6.55989e-015 -3.1477 -1.685 0.84623 -2.08724e-015 -6.36111e-015 -9.0447e-015 8.367 -8.2066 0.59823 2.86969 -27.1904 2.14502 2.19232 -43.463 -0.493181 -1.38346 23.8571 1.46347 0.733257 -45.8593 -2.64513 -2.57975 -7.20414 -3.01131 -8.367 -8.2066 0.59823 -8.00484 -27.4454 -18.464 -2.19233 -43.463 -0.493108 -1.47591 27.5723 -0.30748 -0.733256 -45.8593 -2.64514 2.34867 -9.73762 4.54164 
